<svg id="visual" viewBox="0 0 900 600" width="900" height="600" xmlns="http://www.w3.org/2000/svg" xmlns:xlink="http://www.w3.org/1999/xlink" version="1.1"><rect x="0" y="0" width="900" height="600" fill="#002233"></rect><path d="M0 443L21.5 443.7C43 444.3 86 445.7 128.8 416.2C171.7 386.7 214.3 326.3 257.2 331.7C300 337 343 408 385.8 441.7C428.7 475.3 471.3 471.7 514.2 445.2C557 418.7 600 369.3 642.8 357C685.7 344.7 728.3 369.3 771.2 357.8C814 346.3 857 298.7 878.5 274.8L900 251L900 601L878.5 601C857 601 814 601 771.2 601C728.3 601 685.7 601 642.8 601C600 601 557 601 514.2 601C471.3 601 428.7 601 385.8 601C343 601 300 601 257.2 601C214.3 601 171.7 601 128.8 601C86 601 43 601 21.5 601L0 601Z" fill="#00ffe0" stroke-linecap="round" stroke-linejoin="miter"></path></svg>