<svg id="visual" viewBox="0 0 900 600" width="900" height="600" xmlns="http://www.w3.org/2000/svg" xmlns:xlink="http://www.w3.org/1999/xlink" version="1.1"><rect x="0" y="0" width="900" height="600" fill="#001220"></rect><path d="M0 291L21.5 299C43 307 86 323 128.8 338.7C171.7 354.3 214.3 369.7 257.2 371.8C300 374 343 363 385.8 343C428.7 323 471.3 294 514.2 290.3C557 286.7 600 308.3 642.8 326.2C685.7 344 728.3 358 771.2 347C814 336 857 300 878.5 282L900 264L900 601L878.5 601C857 601 814 601 771.2 601C728.3 601 685.7 601 642.8 601C600 601 557 601 514.2 601C471.3 601 428.7 601 385.8 601C343 601 300 601 257.2 601C214.3 601 171.7 601 128.8 601C86 601 43 601 21.5 601L0 601Z" fill="#72ccbe"></path><path d="M0 395L21.5 395.7C43 396.3 86 397.7 128.8 400.3C171.7 403 214.3 407 257.2 403.7C300 400.3 343 389.7 385.8 387.8C428.7 386 471.3 393 514.2 389.2C557 385.3 600 370.7 642.8 373.2C685.7 375.7 728.3 395.3 771.2 401.8C814 408.3 857 401.7 878.5 398.3L900 395L900 601L878.5 601C857 601 814 601 771.2 601C728.3 601 685.7 601 642.8 601C600 601 557 601 514.2 601C471.3 601 428.7 601 385.8 601C343 601 300 601 257.2 601C214.3 601 171.7 601 128.8 601C86 601 43 601 21.5 601L0 601Z" fill="#85c38b"></path><path d="M0 378L21.5 382.3C43 386.7 86 395.3 128.8 407.2C171.7 419 214.3 434 257.2 434.7C300 435.3 343 421.7 385.8 414.5C428.7 407.3 471.3 406.7 514.2 405.5C557 404.3 600 402.7 642.8 414.2C685.7 425.7 728.3 450.3 771.2 458.3C814 466.3 857 457.7 878.5 453.3L900 449L900 601L878.5 601C857 601 814 601 771.2 601C728.3 601 685.7 601 642.8 601C600 601 557 601 514.2 601C471.3 601 428.7 601 385.8 601C343 601 300 601 257.2 601C214.3 601 171.7 601 128.8 601C86 601 43 601 21.5 601L0 601Z" fill="#afb15b"></path><path d="M0 489L21.5 492.5C43 496 86 503 128.8 500.5C171.7 498 214.3 486 257.2 487C300 488 343 502 385.8 502.5C428.7 503 471.3 490 514.2 478.7C557 467.3 600 457.7 642.8 462.2C685.7 466.7 728.3 485.3 771.2 484.2C814 483 857 462 878.5 451.5L900 441L900 601L878.5 601C857 601 814 601 771.2 601C728.3 601 685.7 601 642.8 601C600 601 557 601 514.2 601C471.3 601 428.7 601 385.8 601C343 601 300 601 257.2 601C214.3 601 171.7 601 128.8 601C86 601 43 601 21.5 601L0 601Z" fill="#db964b"></path><path d="M0 512L21.5 510.5C43 509 86 506 128.8 504.8C171.7 503.7 214.3 504.3 257.2 511C300 517.7 343 530.3 385.8 534.5C428.7 538.7 471.3 534.3 514.2 527.3C557 520.3 600 510.7 642.8 508.7C685.7 506.7 728.3 512.3 771.2 517C814 521.7 857 525.3 878.5 527.2L900 529L900 601L878.5 601C857 601 814 601 771.2 601C728.3 601 685.7 601 642.8 601C600 601 557 601 514.2 601C471.3 601 428.7 601 385.8 601C343 601 300 601 257.2 601C214.3 601 171.7 601 128.8 601C86 601 43 601 21.5 601L0 601Z" fill="#fa7268"></path></svg>