<svg width="100%" height="100%" id="svg" viewBox="0 0 1440 590" xmlns="http://www.w3.org/2000/svg" class="transition duration-300 ease-in-out delay-150"><defs><linearGradient id="gradient" x1="0%" y1="50%" x2="100%" y2="50%"><stop offset="5%" stop-color="#F78DA7"></stop><stop offset="95%" stop-color="#8ED1FC"></stop></linearGradient></defs><path d="M 0,600 C 0,600 0,200 0,200 C 112.06698564593302,225.51196172248802 224.13397129186603,251.02392344497608 307,241 C 389.86602870813397,230.97607655502392 443.53110047846883,185.41626794258374 524,184 C 604.4688995215312,182.58373205741626 711.7416267942584,225.31100478468898 834,236 C 956.2583732057416,246.68899521531102 1093.5023923444976,225.3397129186603 1197,214 C 1300.4976076555024,202.6602870813397 1370.248803827751,201.33014354066984 1440,200 C 1440,200 1440,600 1440,600 Z" stroke="none" stroke-width="0" fill="url(#gradient)" fill-opacity="0.53" class="transition-all duration-300 ease-in-out delay-150 path-0"></path><defs><linearGradient id="gradient" x1="0%" y1="50%" x2="100%" y2="50%"><stop offset="5%" stop-color="#F78DA7"></stop><stop offset="95%" stop-color="#8ED1FC"></stop></linearGradient></defs><path d="M 0,600 C 0,600 0,400 0,400 C 116.2583732057416,361.45454545454544 232.5167464114832,322.9090909090909 334,348 C 435.4832535885168,373.0909090909091 522.1913875598087,461.81818181818187 618,456 C 713.8086124401913,450.18181818181813 818.7177033492823,349.81818181818176 912,328 C 1005.2822966507177,306.18181818181824 1086.9377990430623,362.90909090909093 1173,388 C 1259.0622009569377,413.09090909090907 1349.531100478469,406.5454545454545 1440,400 C 1440,400 1440,600 1440,600 Z" stroke="none" stroke-width="0" fill="url(#gradient)" fill-opacity="1" class="transition-all duration-300 ease-in-out delay-150 path-1"></path></svg>